<svg version="1.1" id="Layer_1" xmlns="http://www.w3.org/2000/svg" xmlns:xlink="http://www.w3.org/1999/xlink" x="0px" y="0px"
	 width="100%" viewBox="0 0 960 960" enable-background="new 0 0 960 960" xml:space="preserve">
<path fill="#000000" opacity="1.000000" stroke="none" 
	d="
M241.650742,516.999878 
	C241.650131,489.333740 241.655441,462.167603 241.645370,435.001465 
	C241.642868,428.288025 241.559906,428.225403 235.046158,428.179382 
	C233.546219,428.168793 232.045959,428.141296 230.546371,428.161102 
	C225.916199,428.222321 222.299423,426.659698 221.053177,421.808472 
	C219.836227,417.071167 222.549850,414.400055 226.286850,412.161346 
	C243.147507,402.060822 259.941986,391.849854 276.785339,381.720306 
	C303.905945,365.410095 331.055908,349.148651 358.166382,332.821655 
	C361.638245,330.730743 364.724762,330.576019 368.384216,332.757935 
	C386.693268,343.674622 405.148804,354.345184 423.519287,365.159271 
	C443.181549,376.733734 462.808594,388.368103 482.444214,399.987823 
	C484.322662,401.099396 486.338379,402.249451 486.202087,404.828949 
	C486.050354,407.701324 483.390900,407.738922 481.503845,408.565094 
	C477.999329,410.099274 474.461273,411.556610 470.942902,413.059418 
	C460.670837,417.446991 454.942719,425.742920 453.138428,436.230743 
	C449.495422,457.406586 453.828094,476.509369 472.227112,488.690887 
	C475.019287,490.539490 477.982635,492.214294 481.293915,492.747314 
	C485.491913,493.423004 486.451508,495.719147 486.385620,499.691345 
	C486.164459,513.020691 486.523163,526.361389 486.197632,539.686401 
	C486.076202,544.657043 487.788574,546.274231 492.487030,545.734863 
	C494.957336,545.451294 497.455292,545.650879 499.845306,546.669983 
	C503.947357,548.419189 506.325745,551.396484 506.184723,555.891968 
	C506.047302,560.273193 503.818604,563.466064 499.683868,565.111023 
	C497.173309,566.109985 494.508972,566.215149 491.817963,566.214600 
	C406.319855,566.195618 320.821777,566.203613 235.323685,566.198425 
	C227.086609,566.197937 223.008270,563.861938 221.829910,558.564453 
	C220.467346,552.439026 224.357666,546.828003 230.722382,545.845215 
	C232.029419,545.643250 233.381836,545.715088 234.713806,545.698303 
	C241.341507,545.614990 241.612732,545.361938 241.641891,538.498840 
	C241.671616,531.499329 241.650085,524.499573 241.650742,516.999878 
M344.285187,541.108948 
	C344.080109,544.264587 345.893951,545.061707 348.650848,545.048950 
	C358.625702,545.002808 368.601288,544.990662 378.575867,545.065369 
	C382.167572,545.092224 383.687866,543.456665 383.667664,539.927246 
	C383.603882,528.788757 383.907135,517.640625 383.543884,506.513397 
	C383.153931,494.569672 374.519684,486.842468 362.679993,487.169983 
	C351.955688,487.466644 344.399475,495.656738 344.306244,507.273315 
	C344.218140,518.245361 344.281250,529.218628 344.285187,541.108948 
M409.927063,487.311310 
	C409.109985,487.955170 408.493652,488.773438 408.489136,489.820801 
	C408.449677,498.954010 408.399109,508.087830 408.470276,517.220520 
	C408.489471,519.685547 410.257385,520.683777 412.501068,520.703064 
	C419.972412,520.767334 427.444458,520.770203 434.916168,520.762573 
	C437.549072,520.759888 438.888733,519.375732 438.891907,516.737000 
	C438.902496,507.934357 438.926910,499.131622 438.898590,490.329102 
	C438.891418,488.094574 438.040466,486.337555 435.469025,486.341553 
	C427.192810,486.354370 418.894989,485.480133 409.927063,487.311310 
M289.329620,506.477386 
	C289.334991,509.466400 289.468628,512.462036 289.314026,515.442749 
	C289.110626,519.364380 291.096619,520.846802 294.720551,520.837891 
	C301.362122,520.821472 308.004486,520.769836 314.645081,520.850464 
	C317.996124,520.891113 319.587067,519.288147 319.603180,516.067078 
	C319.644623,507.765137 319.659760,499.462646 319.611145,491.160828 
	C319.592743,488.018738 318.104187,486.208740 314.723206,486.233978 
	C307.916199,486.284851 301.108429,486.284210 294.301300,486.249451 
	C290.689392,486.231018 289.263702,488.069092 289.323029,491.537262 
	C289.402527,496.185364 289.334686,500.835999 289.329620,506.477386 
M435.532532,420.847137 
	C428.251160,419.832001 420.934967,420.334930 413.642578,420.527679 
	C410.387085,420.613708 408.161041,422.128387 408.292847,426.171509 
	C408.541931,433.811951 408.442139,441.467773 408.320801,449.114594 
	C408.260162,452.937073 410.058594,454.640686 413.702972,454.659546 
	C420.352600,454.693939 427.004181,454.599365 433.651520,454.731110 
	C437.523499,454.807800 438.993622,453.043945 438.947174,449.298065 
	C438.850311,441.484650 438.952972,433.668884 438.946747,425.854095 
	C438.945129,423.823700 438.922852,421.749847 435.532532,420.847137 
M319.664642,448.949768 
	C319.656494,441.463898 319.587433,433.977356 319.665131,426.492371 
	C319.705963,422.561127 317.793121,420.507141 314.014435,420.439056 
	C307.530396,420.322235 301.037018,420.294617 294.557770,420.521454 
	C291.213654,420.638550 289.135925,422.187164 289.270233,426.196747 
	C289.526276,433.840485 289.492615,441.503113 289.280457,449.149597 
	C289.171997,453.058899 290.866028,454.665863 294.530029,454.676208 
	C301.016571,454.694550 307.503296,454.676666 313.989746,454.709442 
	C317.326508,454.726288 319.403778,453.364777 319.664642,448.949768 
M373.029022,454.707123 
	C377.895569,455.016815 379.511139,452.140472 379.551147,447.896729 
	C379.617035,440.913177 379.293365,433.912018 379.693359,426.950378 
	C379.967804,422.173798 377.572723,420.579803 373.593994,420.461548 
	C367.447174,420.278900 361.289032,420.297668 355.140106,420.432404 
	C351.133118,420.520172 349.191345,422.700134 349.252747,426.840363 
	C349.363708,434.321655 349.357361,441.806824 349.250153,449.288239 
	C349.195343,453.113892 350.940125,454.740173 354.667999,454.706726 
	C360.486816,454.654510 366.306671,454.716400 373.029022,454.707123 
z"/>
<path fill="#000000" opacity="1.000000" stroke="none" 
	d="
M517.442993,398.403534 
	C534.171570,388.574158 549.896973,377.987885 563.247742,364.261047 
	C568.928284,358.420502 574.425903,352.411072 578.975952,345.582184 
	C587.946289,332.119385 600.326355,330.993744 612.045776,342.359436 
	C621.484741,351.513519 627.144836,362.982910 631.927063,374.923737 
	C640.185059,395.543213 645.757568,416.847961 648.438171,438.962463 
	C649.944519,451.389771 650.678772,463.799591 650.294250,476.273926 
	C650.038086,484.584198 648.932495,492.823639 646.622803,500.852020 
	C646.255615,502.128113 645.833496,503.402161 645.291504,504.612061 
	C639.367798,517.835632 628.139771,521.480774 615.875305,513.777649 
	C599.931213,503.763275 582.699646,496.907227 564.627686,491.977448 
	C554.171448,489.125122 543.366272,488.229034 532.706909,486.540863 
	C529.313843,486.003510 527.535095,487.728973 529.099731,491.361725 
	C532.586365,499.457367 535.971619,507.601624 539.685974,515.592285 
	C541.599609,519.709229 544.656189,522.925659 548.722229,525.305176 
	C555.634766,529.350525 556.365173,539.404053 549.753052,544.104431 
	C536.522217,553.510010 523.472046,553.484558 514.574219,537.436340 
	C506.618439,523.087280 501.925568,507.397888 496.206787,492.142395 
	C494.922577,488.716644 493.110168,487.168030 489.719177,486.299164 
	C464.480164,479.832123 452.508057,451.694550 465.046844,428.649719 
	C467.449432,424.234039 470.805664,421.072754 475.533997,419.165375 
	C489.915527,413.364014 503.743195,406.415985 517.442993,398.403534 
M634.426208,453.047363 
	C634.233887,451.562714 633.981079,450.083038 633.858276,448.592682 
	C631.664734,421.976227 624.853577,396.572754 613.585815,372.389191 
	C611.057251,366.962402 607.837463,361.824280 603.404846,357.681915 
	C600.103516,354.596741 597.997375,355.063324 596.146851,359.161407 
	C593.991211,363.935303 593.520630,369.087372 593.359619,374.251373 
	C592.633545,397.537476 596.555603,420.267059 602.082092,442.731750 
	C606.098145,459.056580 610.942078,475.168213 620.165100,489.505005 
	C622.180908,492.638458 624.159912,497.119537 628.522583,496.285767 
	C632.967712,495.436188 632.900208,490.444611 633.605103,486.827454 
	C635.724976,475.949066 634.646851,464.935974 634.426208,453.047363 
z"/>
<path fill="#000000" opacity="1.000000" stroke="none" 
	d="
M376.791321,264.108704 
	C395.003784,274.605164 412.899994,284.913177 430.778137,295.252502 
	C435.453979,297.956635 437.022278,301.537354 435.834473,305.995575 
	C434.446625,311.204590 430.590118,311.795288 426.091583,311.580719 
	C417.394470,311.165863 417.349274,311.250336 417.343689,319.772003 
	C417.337830,328.732422 417.342377,337.692841 417.342377,346.266235 
	C414.791412,347.708038 413.551605,346.297241 412.160675,345.487030 
	C397.625488,337.021057 383.055939,328.613068 368.583069,320.041901 
	C365.300751,318.098083 362.580048,318.257355 359.313049,320.154144 
	C344.479340,328.766632 329.526337,337.173676 314.618011,345.657684 
	C313.476715,346.307190 312.383362,347.108337 310.949951,346.758057 
	C309.265991,345.036255 309.846741,342.934387 309.831329,341.022919 
	C309.768250,333.191193 309.588043,325.349365 309.905853,317.529755 
	C310.087036,313.071747 308.152985,311.490845 304.112244,311.498383 
	C302.446442,311.501495 300.777313,311.394318 299.115448,311.467926 
	C295.420349,311.631531 292.391113,310.526245 291.265900,306.734070 
	C290.046509,302.624390 290.340820,298.660797 294.431427,296.133698 
	C299.247528,293.158386 304.204559,290.411926 309.085327,287.540497 
	C325.016907,278.167664 340.939697,268.779846 356.870361,259.405457 
	C360.805145,257.090057 364.688751,257.007629 368.638977,259.508362 
	C371.168488,261.109680 373.853210,262.465881 376.791321,264.108704 
z"/>
<path fill="#000000" opacity="1.000000" stroke="none" 
	d="
M380.254150,617.998108 
	C393.812775,609.114929 406.795380,611.054504 420.679443,624.004639 
	C424.670166,620.113464 428.651581,616.253235 434.304321,614.464233 
	C455.044250,607.900452 470.818298,618.105042 471.804565,639.752014 
	C472.509003,655.214050 471.947113,670.732544 472.024384,686.225403 
	C472.042633,689.887085 470.366028,691.285583 466.805878,691.122070 
	C463.148132,690.954163 459.470703,690.926086 455.814148,691.097656 
	C451.899048,691.281372 450.575928,689.594421 450.625549,685.752258 
	C450.784698,673.426086 450.707428,661.096436 450.659912,648.768372 
	C450.651642,646.617676 450.554810,644.426880 450.139496,642.325562 
	C448.668945,634.885132 445.617828,632.394043 438.222168,632.318054 
	C430.630768,632.240051 426.384521,635.372742 424.796326,642.244873 
	C423.730865,646.855164 424.310150,651.540344 424.260345,656.188721 
	C424.156769,665.850342 424.054565,675.518066 424.295563,685.174622 
	C424.411774,689.830811 422.562256,691.489319 418.093506,691.154846 
	C414.945801,690.919312 411.754028,690.934875 408.603790,691.153564 
	C404.239929,691.456543 402.715363,689.573669 402.769318,685.295837 
	C402.935211,672.136658 402.751312,658.973389 402.867065,645.813171 
	C402.980560,632.907349 393.451538,630.658447 384.065735,632.984802 
	C378.750885,634.302185 376.326141,638.424377 376.281921,644.951965 
	C376.192749,658.112610 376.266876,671.274292 376.238159,684.435486 
	C376.224670,690.604980 375.820099,690.981567 369.769135,691.076904 
	C354.670319,691.314941 354.667328,691.314880 354.666107,676.156189 
	C354.664642,657.663818 354.778717,639.170349 354.589294,620.679932 
	C354.544891,616.344543 355.902313,614.518494 360.293732,614.905640 
	C362.938538,615.138794 365.628754,615.074524 368.284698,614.914062 
	C372.427216,614.663757 375.787811,615.274353 375.532990,620.498230 
	C377.870117,620.868408 378.634827,619.017395 380.254150,617.998108 
z"/>
<path fill="#000000" opacity="1.000000" stroke="none" 
	d="
M558.841797,628.293457 
	C567.399597,644.052856 568.329163,659.921509 559.602295,675.240540 
	C549.428284,693.100098 527.574585,697.590271 510.315735,686.281677 
	C509.369415,685.661621 508.567963,684.699036 506.790833,685.002319 
	C507.464294,691.932617 502.567963,691.142090 498.016571,691.093201 
	C483.247528,690.934387 484.997253,692.773376 484.964539,678.057068 
	C484.901672,649.758972 484.937408,621.460510 484.953888,593.162231 
	C484.958038,586.059265 485.136169,585.902710 492.221161,585.855347 
	C495.383514,585.834167 498.551544,586.009644 501.707611,585.875244 
	C505.159607,585.728271 506.406952,587.222473 506.354675,590.628235 
	C506.219330,599.448486 506.313477,608.272339 506.336823,617.094788 
	C506.338959,617.908875 506.489990,618.722534 506.616119,619.976135 
	C526.202026,609.130493 544.033936,608.676025 558.841797,628.293457 
M516.471924,632.866394 
	C507.293335,637.073975 504.615265,646.829712 506.951294,658.803833 
	C509.287628,670.778992 520.570740,676.602844 532.109741,672.610962 
	C541.181152,669.472717 543.707703,661.958618 544.251648,653.766113 
	C544.746521,646.313965 542.925415,639.159790 536.339233,634.313599 
	C530.325073,629.888306 523.927490,628.993591 516.471924,632.866394 
z"/>
<path fill="#000000" opacity="1.000000" stroke="none" 
	d="
M216.261292,692.239380 
	C204.499710,691.020142 194.679565,686.606567 186.377045,678.814026 
	C183.981308,676.565491 183.496613,674.446350 186.315826,672.216675 
	C186.575897,672.011047 186.793289,671.752197 187.039124,671.527588 
	C190.229736,668.612000 192.604080,664.348267 196.611618,662.905396 
	C201.187988,661.257751 203.491470,666.559753 207.072144,668.332825 
	C214.109467,671.817871 221.369659,672.672363 228.941498,671.587891 
	C234.539886,670.785950 238.056686,667.544861 238.790375,663.068787 
	C239.694611,657.552307 237.708267,654.138306 231.916138,651.187012 
	C227.278503,648.823853 222.279602,647.545105 217.287720,646.229675 
	C211.794769,644.782227 206.446350,642.942383 201.582352,639.937439 
	C182.174545,627.947632 182.869614,601.504578 202.960190,590.623596 
	C216.585175,583.244385 240.924744,582.477600 256.298584,596.805115 
	C259.484009,599.773682 260.362823,602.305420 256.865540,605.432922 
	C256.619049,605.653320 256.425903,605.932861 256.204132,606.181458 
	C248.860809,614.412781 248.758392,614.393005 239.540985,609.161011 
	C232.394302,605.104309 224.980896,602.459045 216.734207,605.818176 
	C213.329041,607.205322 210.625931,609.237061 210.264465,613.300232 
	C209.891403,617.493591 212.079681,620.324341 215.348602,622.363220 
	C219.624634,625.030334 224.534668,626.184143 229.271912,627.746094 
	C236.521378,630.136353 244.155518,631.707642 250.374496,636.496399 
	C268.510376,650.461426 264.749908,678.583374 243.614624,688.257446 
	C234.978241,692.210449 225.933441,692.563416 216.261292,692.239380 
z"/>
<path fill="#000000" opacity="1.000000" stroke="none" 
	d="
M279.626617,624.682129 
	C290.307373,611.799255 310.458618,609.625549 324.410095,616.027039 
	C337.088715,621.844666 342.190948,633.046692 343.248230,646.208008 
	C344.299988,659.299866 344.024719,659.315002 330.844574,659.311523 
	C319.357697,659.308472 307.870789,659.309021 296.384033,659.345764 
	C294.611237,659.351440 292.757385,659.010742 291.107300,659.901794 
	C292.041595,667.885437 297.705078,673.250488 306.375122,674.735535 
	C313.522491,675.959839 319.996918,674.028992 325.841583,670.221191 
	C329.082001,668.110107 331.250549,668.373047 333.346466,671.396484 
	C333.439728,671.531006 333.580231,671.632568 333.697693,671.750549 
	C341.923462,680.008728 341.899689,680.194702 331.803345,686.574829 
	C313.726105,697.998291 286.938263,692.645630 275.790558,675.382629 
	C267.313324,662.255066 269.039398,638.033386 279.626617,624.682129 
M296.346191,633.812805 
	C294.056458,636.450073 292.086884,639.236633 291.781860,643.517395 
	C302.037048,643.774231 311.980194,644.152832 321.879944,643.352722 
	C322.368866,632.238098 308.501831,624.632019 296.346191,633.812805 
z"/>
<path fill="#000000" opacity="1.000000" stroke="none" 
	d="
M576.883118,675.749817 
	C575.463318,671.045715 574.697998,666.654846 574.714172,662.113220 
	C574.763428,648.287476 574.858582,634.459656 574.664734,620.636475 
	C574.604187,616.322083 576.007935,614.513794 580.418884,614.849915 
	C584.063110,615.127563 587.751099,615.068787 591.406799,614.891907 
	C595.069214,614.714600 596.409485,616.189880 596.371033,619.865723 
	C596.233215,633.023865 596.310852,646.184387 596.331909,659.344055 
	C596.347168,668.857300 599.957092,672.690918 608.970825,672.836548 
	C619.195496,673.001648 624.690613,668.334534 624.782349,659.064026 
	C624.907593,646.405457 625.007935,633.740479 624.727600,621.086975 
	C624.618286,616.151367 626.482544,614.508850 631.147583,614.883057 
	C634.292236,615.135193 637.490967,615.136780 640.634644,614.877197 
	C645.421387,614.481812 647.108826,616.447571 647.048279,621.217773 
	C646.847473,637.040100 646.962280,652.866394 646.957153,668.691162 
	C646.955383,674.188232 646.847168,679.688171 646.994324,685.181335 
	C647.097595,689.033569 646.193970,691.310852 641.623962,690.527588 
	C639.363037,690.140076 636.968506,690.406677 634.644043,690.542480 
	C630.146545,690.805359 625.644226,691.206238 625.174683,683.775146 
	C613.854797,693.070068 601.999207,694.826172 589.536072,689.661499 
	C583.533691,687.174133 579.108521,682.562073 576.883118,675.749817 
z"/>
<path fill="#000000" opacity="1.000000" stroke="none" 
	d="
M766.558838,658.551270 
	C763.483337,663.097473 759.140503,666.198181 756.729431,670.843994 
	C758.038391,673.291504 760.265137,672.556091 762.107849,672.574341 
	C770.433350,672.656860 778.763062,672.738586 787.085022,672.548340 
	C790.407471,672.472412 791.451660,673.689270 791.383484,676.890686 
	C791.037170,693.154480 793.554138,690.125671 778.567810,690.320618 
	C763.749329,690.513306 748.926331,690.360291 734.105347,690.360535 
	C727.882568,690.360596 728.024963,690.261536 727.685608,683.868835 
	C727.388367,678.270203 728.812805,673.873596 732.677124,669.460999 
	C742.207458,658.578186 751.062012,647.103210 760.169373,635.850952 
	C760.555847,635.373474 760.752625,634.742432 761.207581,633.849487 
	C758.575500,632.819031 756.086243,633.196472 753.669495,633.181641 
	C747.341797,633.142578 741.010681,633.071533 734.686768,633.236023 
	C731.151367,633.327942 729.526611,632.176453 729.610352,628.383911 
	C729.964966,612.316040 727.453735,615.134277 742.490173,614.954590 
	C756.310120,614.789368 770.134949,615.031250 783.954468,614.850830 
	C788.066101,614.797119 789.178223,616.250366 789.499695,620.316467 
	C790.105774,627.980286 788.029419,634.054932 782.575867,639.611023 
	C776.882019,645.411926 772.002014,652.011719 766.558838,658.551270 
z"/>
<path fill="#000000" opacity="1.000000" stroke="none" 
	d="
M701.997314,614.956909 
	C706.825867,614.950806 711.155212,614.917358 715.484070,614.948853 
	C717.156555,614.960999 719.516052,615.009155 719.372803,617.083618 
	C718.965454,622.985718 721.183472,629.134766 716.303955,634.611694 
	C706.566772,645.541077 697.360107,656.943481 687.953918,668.166870 
	C687.122253,669.159241 686.433899,670.271606 685.599426,671.439575 
	C687.882019,673.009033 690.237427,672.603394 692.480164,672.618042 
	C700.472107,672.670288 708.465942,672.735168 716.455994,672.605591 
	C719.663513,672.553528 720.818237,673.861267 721.026794,676.987000 
	C721.920166,690.381653 721.986816,690.369873 708.879639,690.383118 
	C693.394775,690.398743 677.908386,690.319275 662.426025,690.530029 
	C658.611206,690.581970 657.794983,689.179260 657.533875,685.622620 
	C657.042480,678.929138 658.722412,673.574646 663.370850,668.458069 
	C671.418640,659.599976 678.781006,650.116821 686.369690,640.845764 
	C688.038940,638.806580 689.452393,636.557922 691.231750,634.056824 
	C688.335144,632.701416 685.678406,633.287476 683.138245,633.217712 
	C679.144836,633.107910 675.131042,633.388489 671.155029,633.101318 
	C667.469727,632.835022 662.357727,635.114441 660.424500,631.613953 
	C658.180481,627.550659 659.459900,622.160400 659.856140,617.379944 
	C660.112610,614.285095 663.002197,614.971436 665.032593,614.962708 
	C677.187500,614.910339 689.342773,614.948059 701.997314,614.956909 
z"/>
<path fill="#000000" opacity="1.000000" stroke="none" 
	d="
M692.049683,457.824493 
	C693.595398,458.542969 694.857422,459.015198 695.978149,459.713959 
	C699.067017,461.640015 701.091553,464.219177 699.362305,467.983887 
	C697.692993,471.618103 694.473877,472.480042 690.979370,471.117249 
	C686.811584,469.491882 682.830139,467.390533 678.760315,465.511963 
	C675.141602,463.841644 671.500671,462.218903 667.890686,460.530121 
	C663.275269,458.371094 661.236633,454.556305 663.217651,451.051636 
	C665.450867,447.100830 669.074280,447.103729 672.769104,448.789032 
	C679.112244,451.682343 685.393982,454.710236 692.049683,457.824493 
z"/>
<path fill="#000000" opacity="1.000000" stroke="none" 
	d="
M661.235718,387.219421 
	C666.192749,383.255249 670.784729,379.397491 675.608398,375.855194 
	C679.880249,372.718109 683.751343,373.126740 686.171143,376.529388 
	C688.343201,379.583557 687.417358,383.306519 683.449524,386.460114 
	C677.586792,391.119781 671.650818,395.688934 665.689209,400.221893 
	C661.596924,403.333527 657.568359,403.139252 655.175842,399.745636 
	C652.371277,395.767609 654.428894,392.911224 657.531250,390.357727 
	C658.688293,389.405365 659.825256,388.428650 661.235718,387.219421 
z"/>
<path fill="#000000" opacity="1.000000" stroke="none" 
	d="
M670.876343,431.230347 
	C664.884094,431.164764 662.084229,429.148590 661.906006,425.134033 
	C661.745422,421.516907 664.680725,419.247986 669.797363,418.621155 
	C677.676453,417.655975 685.528259,416.470001 693.397888,415.424805 
	C698.011047,414.812164 701.614563,416.991028 701.966919,420.793243 
	C702.366699,425.106903 699.914368,427.125366 695.857666,427.685944 
	C687.672119,428.816986 679.495728,430.013916 670.876343,431.230347 
z"/>
<path fill="#000000" opacity="1.000000" stroke="none" 
	d="
M603.319519,407.030823 
	C603.978088,402.209015 606.542236,403.907288 608.741882,405.046753 
	C616.924011,409.285065 620.682007,416.677307 622.918152,425.145874 
	C625.279602,434.089355 624.280884,442.568176 619.471924,450.514587 
	C618.354126,452.361847 617.097839,454.505615 614.649780,454.334656 
	C612.130920,454.158783 612.168518,451.576752 611.564453,449.787384 
	C606.924255,436.041656 604.359497,421.887482 603.319519,407.030823 
z"/>
</svg>